<mxfile host="Electron" agent="Mozilla/5.0 (Windows NT 10.0; Win64; x64) AppleWebKit/537.36 (KHTML, like Gecko) draw.io/28.1.2 Chrome/138.0.7204.243 Electron/37.4.0 Safari/537.36" version="28.1.2">
  <diagram name="Page-1" id="CoDmN1xDF0iX2Mcgt9c3">
    <mxGraphModel dx="3262" dy="2444" grid="1" gridSize="1" guides="1" tooltips="1" connect="1" arrows="1" fold="1" page="1" pageScale="1" pageWidth="850" pageHeight="1100" math="0" shadow="0">
      <root>
        <mxCell id="0" />
        <mxCell id="1" parent="0" />
        <mxCell id="EZJUQ_Hk_AUpXrAV0Ghc-127" value="" style="rounded=0;whiteSpace=wrap;html=1;strokeWidth=3;fontSize=20;container=0;fontStyle=1" parent="1" vertex="1">
          <mxGeometry x="2065" y="125" width="173" height="192" as="geometry" />
        </mxCell>
        <mxCell id="EZJUQ_Hk_AUpXrAV0Ghc-128" value="D" style="text;html=1;align=center;verticalAlign=middle;resizable=0;points=[];autosize=1;strokeColor=none;fillColor=none;strokeWidth=3;fontSize=20;container=0;fontStyle=1" parent="1" vertex="1">
          <mxGeometry x="2070" y="141" width="40" height="40" as="geometry" />
        </mxCell>
        <mxCell id="EZJUQ_Hk_AUpXrAV0Ghc-129" value="CLK" style="text;html=1;align=center;verticalAlign=middle;resizable=0;points=[];autosize=1;strokeColor=none;fillColor=none;strokeWidth=3;fontSize=20;container=0;fontStyle=1" parent="1" vertex="1">
          <mxGeometry x="2079" y="257" width="60" height="40" as="geometry" />
        </mxCell>
        <mxCell id="EZJUQ_Hk_AUpXrAV0Ghc-130" value="Q" style="text;html=1;align=center;verticalAlign=middle;resizable=0;points=[];autosize=1;strokeColor=none;fillColor=none;strokeWidth=3;fontSize=20;container=0;fontStyle=1" parent="1" vertex="1">
          <mxGeometry x="2193" y="141" width="40" height="40" as="geometry" />
        </mxCell>
        <mxCell id="EZJUQ_Hk_AUpXrAV0Ghc-131" value="" style="triangle;whiteSpace=wrap;html=1;strokeWidth=3;fillColor=#33001A;strokeColor=#33001A;fontColor=#ffffff;" parent="1" vertex="1">
          <mxGeometry x="2065" y="266" width="19" height="22" as="geometry" />
        </mxCell>
        <mxCell id="EZJUQ_Hk_AUpXrAV0Ghc-133" value="" style="ellipse;whiteSpace=wrap;html=1;aspect=fixed;strokeWidth=3;" parent="1" vertex="1">
          <mxGeometry x="2053" y="271.5" width="11" height="11" as="geometry" />
        </mxCell>
        <mxCell id="EZJUQ_Hk_AUpXrAV0Ghc-134" style="rounded=0;orthogonalLoop=1;jettySize=auto;html=1;exitX=1;exitY=0.5;exitDx=0;exitDy=0;endArrow=none;endFill=0;strokeWidth=3;entryX=0;entryY=0.5;entryDx=0;entryDy=0;" parent="1" source="EZJUQ_Hk_AUpXrAV0Ghc-135" edge="1">
          <mxGeometry relative="1" as="geometry">
            <mxPoint x="1653.0000000000025" y="277" as="targetPoint" />
          </mxGeometry>
        </mxCell>
        <mxCell id="EZJUQ_Hk_AUpXrAV0Ghc-135" value="clk 1" style="rounded=0;whiteSpace=wrap;html=1;strokeColor=none;fontSize=20;" parent="1" vertex="1">
          <mxGeometry x="1435" y="260" width="67" height="35" as="geometry" />
        </mxCell>
        <mxCell id="EZJUQ_Hk_AUpXrAV0Ghc-136" style="rounded=0;orthogonalLoop=1;jettySize=auto;html=1;exitX=1;exitY=0.5;exitDx=0;exitDy=0;endArrow=none;endFill=0;strokeWidth=3;entryX=0.005;entryY=0.17;entryDx=0;entryDy=0;entryPerimeter=0;" parent="1" source="EZJUQ_Hk_AUpXrAV0Ghc-137" edge="1">
          <mxGeometry relative="1" as="geometry">
            <mxPoint x="1665.8649999999998" y="157.63999999999987" as="targetPoint" />
          </mxGeometry>
        </mxCell>
        <mxCell id="EZJUQ_Hk_AUpXrAV0Ghc-137" value="d" style="rounded=0;whiteSpace=wrap;html=1;strokeColor=none;fontSize=20;" parent="1" vertex="1">
          <mxGeometry x="1433" y="140" width="67" height="35" as="geometry" />
        </mxCell>
        <mxCell id="EZJUQ_Hk_AUpXrAV0Ghc-138" style="rounded=0;orthogonalLoop=1;jettySize=auto;html=1;endArrow=none;endFill=0;strokeWidth=3;" parent="1" edge="1">
          <mxGeometry relative="1" as="geometry">
            <mxPoint x="1838" y="161" as="sourcePoint" />
            <mxPoint x="2065" y="161" as="targetPoint" />
          </mxGeometry>
        </mxCell>
        <mxCell id="EZJUQ_Hk_AUpXrAV0Ghc-139" value="" style="edgeStyle=orthogonalEdgeStyle;rounded=0;orthogonalLoop=1;jettySize=auto;html=1;strokeWidth=3;endArrow=none;endFill=0;" parent="1" source="EZJUQ_Hk_AUpXrAV0Ghc-140" edge="1">
          <mxGeometry relative="1" as="geometry">
            <mxPoint x="2239" y="161" as="targetPoint" />
          </mxGeometry>
        </mxCell>
        <mxCell id="EZJUQ_Hk_AUpXrAV0Ghc-140" value="q" style="rounded=0;whiteSpace=wrap;html=1;strokeColor=none;fontSize=20;" parent="1" vertex="1">
          <mxGeometry x="2378" y="143.5" width="67" height="35" as="geometry" />
        </mxCell>
        <mxCell id="EZJUQ_Hk_AUpXrAV0Ghc-142" style="rounded=0;orthogonalLoop=1;jettySize=auto;html=1;exitX=1;exitY=0.5;exitDx=0;exitDy=0;endArrow=none;endFill=0;strokeWidth=3;entryX=0;entryY=0.5;entryDx=0;entryDy=0;" parent="1" edge="1">
          <mxGeometry relative="1" as="geometry">
            <mxPoint x="1687" y="671" as="targetPoint" />
            <mxPoint x="1536" y="671.5" as="sourcePoint" />
          </mxGeometry>
        </mxCell>
        <mxCell id="EZJUQ_Hk_AUpXrAV0Ghc-144" style="rounded=0;orthogonalLoop=1;jettySize=auto;html=1;exitX=1;exitY=0.5;exitDx=0;exitDy=0;endArrow=none;endFill=0;strokeWidth=3;entryX=0.005;entryY=0.17;entryDx=0;entryDy=0;entryPerimeter=0;" parent="1" source="EZJUQ_Hk_AUpXrAV0Ghc-145" edge="1">
          <mxGeometry relative="1" as="geometry">
            <mxPoint x="1699.8649999999998" y="551.6400000000001" as="targetPoint" />
          </mxGeometry>
        </mxCell>
        <mxCell id="EZJUQ_Hk_AUpXrAV0Ghc-145" value="d" style="rounded=0;whiteSpace=wrap;html=1;strokeColor=none;fontSize=20;" parent="1" vertex="1">
          <mxGeometry x="1467" y="534" width="67" height="35" as="geometry" />
        </mxCell>
        <mxCell id="EZJUQ_Hk_AUpXrAV0Ghc-146" style="rounded=0;orthogonalLoop=1;jettySize=auto;html=1;endArrow=none;endFill=0;strokeWidth=3;" parent="1" edge="1">
          <mxGeometry relative="1" as="geometry">
            <mxPoint x="1872" y="555" as="sourcePoint" />
            <mxPoint x="2099" y="555" as="targetPoint" />
          </mxGeometry>
        </mxCell>
        <mxCell id="EZJUQ_Hk_AUpXrAV0Ghc-147" value="" style="edgeStyle=orthogonalEdgeStyle;rounded=0;orthogonalLoop=1;jettySize=auto;html=1;strokeWidth=3;endArrow=none;endFill=0;" parent="1" source="EZJUQ_Hk_AUpXrAV0Ghc-148" edge="1">
          <mxGeometry relative="1" as="geometry">
            <mxPoint x="2273" y="555" as="targetPoint" />
          </mxGeometry>
        </mxCell>
        <mxCell id="EZJUQ_Hk_AUpXrAV0Ghc-148" value="q" style="rounded=0;whiteSpace=wrap;html=1;strokeColor=none;fontSize=20;" parent="1" vertex="1">
          <mxGeometry x="2412" y="537.5" width="67" height="35" as="geometry" />
        </mxCell>
        <mxCell id="EZJUQ_Hk_AUpXrAV0Ghc-149" value="" style="rounded=0;whiteSpace=wrap;html=1;strokeWidth=3;fontSize=20;container=0;fontStyle=1" parent="1" vertex="1">
          <mxGeometry x="2101" y="518" width="173" height="192" as="geometry" />
        </mxCell>
        <mxCell id="EZJUQ_Hk_AUpXrAV0Ghc-150" value="D" style="text;html=1;align=center;verticalAlign=middle;resizable=0;points=[];autosize=1;strokeColor=none;fillColor=none;strokeWidth=3;fontSize=20;container=0;fontStyle=1" parent="1" vertex="1">
          <mxGeometry x="2110" y="536" width="33" height="37" as="geometry" />
        </mxCell>
        <mxCell id="EZJUQ_Hk_AUpXrAV0Ghc-151" value="CLK" style="text;html=1;align=center;verticalAlign=middle;resizable=0;points=[];autosize=1;strokeColor=none;fillColor=none;strokeWidth=3;fontSize=20;container=0;fontStyle=1" parent="1" vertex="1">
          <mxGeometry x="2116" y="652" width="58" height="37" as="geometry" />
        </mxCell>
        <mxCell id="EZJUQ_Hk_AUpXrAV0Ghc-152" value="Q" style="text;html=1;align=center;verticalAlign=middle;resizable=0;points=[];autosize=1;strokeColor=none;fillColor=none;strokeWidth=3;fontSize=20;container=0;fontStyle=1" parent="1" vertex="1">
          <mxGeometry x="2232" y="536" width="35" height="37" as="geometry" />
        </mxCell>
        <mxCell id="EZJUQ_Hk_AUpXrAV0Ghc-153" value="" style="triangle;whiteSpace=wrap;html=1;strokeWidth=3;fillColor=#33001A;strokeColor=#33001A;fontColor=#ffffff;" parent="1" vertex="1">
          <mxGeometry x="2101" y="659" width="19" height="22" as="geometry" />
        </mxCell>
        <mxCell id="EZJUQ_Hk_AUpXrAV0Ghc-154" value="" style="rounded=0;whiteSpace=wrap;html=1;strokeWidth=3;fontSize=20;container=0;fontStyle=1" parent="1" vertex="1">
          <mxGeometry x="2027" y="942" width="173" height="192" as="geometry" />
        </mxCell>
        <mxCell id="EZJUQ_Hk_AUpXrAV0Ghc-155" value="D" style="text;html=1;align=center;verticalAlign=middle;resizable=0;points=[];autosize=1;strokeColor=none;fillColor=none;strokeWidth=3;fontSize=20;container=0;fontStyle=1" parent="1" vertex="1">
          <mxGeometry x="2032" y="958" width="40" height="40" as="geometry" />
        </mxCell>
        <mxCell id="EZJUQ_Hk_AUpXrAV0Ghc-156" value="CLK" style="text;html=1;align=center;verticalAlign=middle;resizable=0;points=[];autosize=1;strokeColor=none;fillColor=none;strokeWidth=3;fontSize=20;container=0;fontStyle=1" parent="1" vertex="1">
          <mxGeometry x="2041" y="1074" width="60" height="40" as="geometry" />
        </mxCell>
        <mxCell id="EZJUQ_Hk_AUpXrAV0Ghc-157" value="Q" style="text;html=1;align=center;verticalAlign=middle;resizable=0;points=[];autosize=1;strokeColor=none;fillColor=none;strokeWidth=3;fontSize=20;container=0;fontStyle=1" parent="1" vertex="1">
          <mxGeometry x="2155" y="958" width="40" height="40" as="geometry" />
        </mxCell>
        <mxCell id="EZJUQ_Hk_AUpXrAV0Ghc-158" value="" style="triangle;whiteSpace=wrap;html=1;strokeWidth=3;fillColor=#33001A;strokeColor=#33001A;fontColor=#ffffff;" parent="1" vertex="1">
          <mxGeometry x="2027" y="1083" width="19" height="22" as="geometry" />
        </mxCell>
        <mxCell id="EZJUQ_Hk_AUpXrAV0Ghc-160" value="" style="ellipse;whiteSpace=wrap;html=1;aspect=fixed;strokeWidth=3;" parent="1" vertex="1">
          <mxGeometry x="2015" y="1088.5" width="11" height="11" as="geometry" />
        </mxCell>
        <mxCell id="EZJUQ_Hk_AUpXrAV0Ghc-161" style="rounded=0;orthogonalLoop=1;jettySize=auto;html=1;exitX=1;exitY=0.5;exitDx=0;exitDy=0;endArrow=none;endFill=0;strokeWidth=3;entryX=-0.004;entryY=0.802;entryDx=0;entryDy=0;entryPerimeter=0;" parent="1" target="EZJUQ_Hk_AUpXrAV0Ghc-191" edge="1">
          <mxGeometry relative="1" as="geometry">
            <mxPoint x="1615" y="1094" as="targetPoint" />
            <mxPoint x="1464.0000000000005" y="1094.5" as="sourcePoint" />
          </mxGeometry>
        </mxCell>
        <mxCell id="EZJUQ_Hk_AUpXrAV0Ghc-163" style="rounded=0;orthogonalLoop=1;jettySize=auto;html=1;exitX=1;exitY=0.5;exitDx=0;exitDy=0;endArrow=none;endFill=0;strokeWidth=3;entryX=0.005;entryY=0.17;entryDx=0;entryDy=0;entryPerimeter=0;" parent="1" source="EZJUQ_Hk_AUpXrAV0Ghc-164" edge="1">
          <mxGeometry relative="1" as="geometry">
            <mxPoint x="1627.8649999999998" y="974.6400000000003" as="targetPoint" />
          </mxGeometry>
        </mxCell>
        <mxCell id="EZJUQ_Hk_AUpXrAV0Ghc-164" value="d" style="rounded=0;whiteSpace=wrap;html=1;strokeColor=none;fontSize=20;" parent="1" vertex="1">
          <mxGeometry x="1395" y="957" width="67" height="35" as="geometry" />
        </mxCell>
        <mxCell id="EZJUQ_Hk_AUpXrAV0Ghc-165" style="rounded=0;orthogonalLoop=1;jettySize=auto;html=1;endArrow=none;endFill=0;strokeWidth=3;" parent="1" edge="1">
          <mxGeometry relative="1" as="geometry">
            <mxPoint x="1790" y="978" as="sourcePoint" />
            <mxPoint x="2027" y="978" as="targetPoint" />
          </mxGeometry>
        </mxCell>
        <mxCell id="EZJUQ_Hk_AUpXrAV0Ghc-166" value="" style="edgeStyle=orthogonalEdgeStyle;rounded=0;orthogonalLoop=1;jettySize=auto;html=1;strokeWidth=3;endArrow=none;endFill=0;" parent="1" source="EZJUQ_Hk_AUpXrAV0Ghc-167" edge="1">
          <mxGeometry relative="1" as="geometry">
            <mxPoint x="2201" y="978" as="targetPoint" />
          </mxGeometry>
        </mxCell>
        <mxCell id="EZJUQ_Hk_AUpXrAV0Ghc-167" value="q" style="rounded=0;whiteSpace=wrap;html=1;strokeColor=none;fontSize=20;" parent="1" vertex="1">
          <mxGeometry x="2340" y="960.5" width="67" height="35" as="geometry" />
        </mxCell>
        <mxCell id="EZJUQ_Hk_AUpXrAV0Ghc-169" style="rounded=0;orthogonalLoop=1;jettySize=auto;html=1;exitX=1;exitY=0.5;exitDx=0;exitDy=0;endArrow=none;endFill=0;strokeWidth=3;entryX=-0.004;entryY=0.819;entryDx=0;entryDy=0;entryPerimeter=0;" parent="1" target="EZJUQ_Hk_AUpXrAV0Ghc-195" edge="1">
          <mxGeometry relative="1" as="geometry">
            <mxPoint x="1561" y="1510" as="targetPoint" />
            <mxPoint x="1410" y="1510.5" as="sourcePoint" />
          </mxGeometry>
        </mxCell>
        <mxCell id="EZJUQ_Hk_AUpXrAV0Ghc-171" style="rounded=0;orthogonalLoop=1;jettySize=auto;html=1;exitX=1;exitY=0.5;exitDx=0;exitDy=0;endArrow=none;endFill=0;strokeWidth=3;entryX=0.005;entryY=0.17;entryDx=0;entryDy=0;entryPerimeter=0;" parent="1" source="EZJUQ_Hk_AUpXrAV0Ghc-172" edge="1">
          <mxGeometry relative="1" as="geometry">
            <mxPoint x="1573.8649999999998" y="1390.6400000000003" as="targetPoint" />
          </mxGeometry>
        </mxCell>
        <mxCell id="EZJUQ_Hk_AUpXrAV0Ghc-172" value="d" style="rounded=0;whiteSpace=wrap;html=1;strokeColor=none;fontSize=20;" parent="1" vertex="1">
          <mxGeometry x="1341" y="1373" width="67" height="35" as="geometry" />
        </mxCell>
        <mxCell id="EZJUQ_Hk_AUpXrAV0Ghc-173" style="rounded=0;orthogonalLoop=1;jettySize=auto;html=1;endArrow=none;endFill=0;strokeWidth=3;" parent="1" edge="1">
          <mxGeometry relative="1" as="geometry">
            <mxPoint x="1736" y="1394" as="sourcePoint" />
            <mxPoint x="1973" y="1394" as="targetPoint" />
          </mxGeometry>
        </mxCell>
        <mxCell id="EZJUQ_Hk_AUpXrAV0Ghc-174" value="" style="rounded=0;orthogonalLoop=1;jettySize=auto;html=1;strokeWidth=3;endArrow=none;endFill=0;" parent="1" source="EZJUQ_Hk_AUpXrAV0Ghc-175" edge="1">
          <mxGeometry relative="1" as="geometry">
            <mxPoint x="2145" y="1393" as="targetPoint" />
          </mxGeometry>
        </mxCell>
        <mxCell id="EZJUQ_Hk_AUpXrAV0Ghc-175" value="q" style="rounded=0;whiteSpace=wrap;html=1;strokeColor=none;fontSize=20;" parent="1" vertex="1">
          <mxGeometry x="2286" y="1376.5" width="67" height="35" as="geometry" />
        </mxCell>
        <mxCell id="EZJUQ_Hk_AUpXrAV0Ghc-176" value="" style="rounded=0;whiteSpace=wrap;html=1;strokeWidth=3;fontSize=20;container=0;fontStyle=1" parent="1" vertex="1">
          <mxGeometry x="1972" y="1360" width="173" height="192" as="geometry" />
        </mxCell>
        <mxCell id="EZJUQ_Hk_AUpXrAV0Ghc-177" value="D" style="text;html=1;align=center;verticalAlign=middle;resizable=0;points=[];autosize=1;strokeColor=none;fillColor=none;strokeWidth=3;fontSize=20;container=0;fontStyle=1" parent="1" vertex="1">
          <mxGeometry x="1981" y="1378" width="33" height="37" as="geometry" />
        </mxCell>
        <mxCell id="EZJUQ_Hk_AUpXrAV0Ghc-178" value="CLK" style="text;html=1;align=center;verticalAlign=middle;resizable=0;points=[];autosize=1;strokeColor=none;fillColor=none;strokeWidth=3;fontSize=20;container=0;fontStyle=1" parent="1" vertex="1">
          <mxGeometry x="1987" y="1492" width="58" height="37" as="geometry" />
        </mxCell>
        <mxCell id="EZJUQ_Hk_AUpXrAV0Ghc-179" value="Q" style="text;html=1;align=center;verticalAlign=middle;resizable=0;points=[];autosize=1;strokeColor=none;fillColor=none;strokeWidth=3;fontSize=20;container=0;fontStyle=1" parent="1" vertex="1">
          <mxGeometry x="2103" y="1378" width="35" height="37" as="geometry" />
        </mxCell>
        <mxCell id="EZJUQ_Hk_AUpXrAV0Ghc-180" value="" style="triangle;whiteSpace=wrap;html=1;strokeWidth=3;fillColor=#33001A;strokeColor=#33001A;fontColor=#ffffff;" parent="1" vertex="1">
          <mxGeometry x="1972" y="1499" width="19" height="22" as="geometry" />
        </mxCell>
        <mxCell id="EZJUQ_Hk_AUpXrAV0Ghc-181" value="" style="rounded=0;whiteSpace=wrap;html=1;strokeWidth=3;fontSize=20;container=0;fontStyle=1" parent="1" vertex="1">
          <mxGeometry x="1662.5" y="125" width="173" height="192" as="geometry" />
        </mxCell>
        <mxCell id="EZJUQ_Hk_AUpXrAV0Ghc-182" value="D" style="text;html=1;align=center;verticalAlign=middle;resizable=0;points=[];autosize=1;strokeColor=none;fillColor=none;strokeWidth=3;fontSize=20;container=0;fontStyle=1" parent="1" vertex="1">
          <mxGeometry x="1667.5" y="141" width="40" height="40" as="geometry" />
        </mxCell>
        <mxCell id="EZJUQ_Hk_AUpXrAV0Ghc-183" value="CLK" style="text;html=1;align=center;verticalAlign=middle;resizable=0;points=[];autosize=1;strokeColor=none;fillColor=none;strokeWidth=3;fontSize=20;container=0;fontStyle=1" parent="1" vertex="1">
          <mxGeometry x="1663.5" y="257" width="60" height="40" as="geometry" />
        </mxCell>
        <mxCell id="EZJUQ_Hk_AUpXrAV0Ghc-184" value="Q" style="text;html=1;align=center;verticalAlign=middle;resizable=0;points=[];autosize=1;strokeColor=none;fillColor=none;strokeWidth=3;fontSize=20;container=0;fontStyle=1" parent="1" vertex="1">
          <mxGeometry x="1790.5" y="141" width="40" height="40" as="geometry" />
        </mxCell>
        <mxCell id="EZJUQ_Hk_AUpXrAV0Ghc-185" value="" style="ellipse;whiteSpace=wrap;html=1;aspect=fixed;strokeWidth=3;" parent="1" vertex="1">
          <mxGeometry x="1650.5" y="271.5" width="11" height="11" as="geometry" />
        </mxCell>
        <mxCell id="EZJUQ_Hk_AUpXrAV0Ghc-186" value="" style="rounded=0;whiteSpace=wrap;html=1;strokeWidth=3;fontSize=20;container=0;fontStyle=1" parent="1" vertex="1">
          <mxGeometry x="1700" y="519" width="173" height="192" as="geometry" />
        </mxCell>
        <mxCell id="EZJUQ_Hk_AUpXrAV0Ghc-187" value="D" style="text;html=1;align=center;verticalAlign=middle;resizable=0;points=[];autosize=1;strokeColor=none;fillColor=none;strokeWidth=3;fontSize=20;container=0;fontStyle=1" parent="1" vertex="1">
          <mxGeometry x="1709" y="537" width="33" height="37" as="geometry" />
        </mxCell>
        <mxCell id="EZJUQ_Hk_AUpXrAV0Ghc-188" value="CLK" style="text;html=1;align=center;verticalAlign=middle;resizable=0;points=[];autosize=1;strokeColor=none;fillColor=none;strokeWidth=3;fontSize=20;container=0;fontStyle=1" parent="1" vertex="1">
          <mxGeometry x="1702" y="653" width="58" height="37" as="geometry" />
        </mxCell>
        <mxCell id="EZJUQ_Hk_AUpXrAV0Ghc-189" value="Q" style="text;html=1;align=center;verticalAlign=middle;resizable=0;points=[];autosize=1;strokeColor=none;fillColor=none;strokeWidth=3;fontSize=20;container=0;fontStyle=1" parent="1" vertex="1">
          <mxGeometry x="1831" y="537" width="35" height="37" as="geometry" />
        </mxCell>
        <mxCell id="EZJUQ_Hk_AUpXrAV0Ghc-190" value="" style="ellipse;whiteSpace=wrap;html=1;aspect=fixed;strokeWidth=3;" parent="1" vertex="1">
          <mxGeometry x="1688" y="665.5" width="11" height="11" as="geometry" />
        </mxCell>
        <mxCell id="EZJUQ_Hk_AUpXrAV0Ghc-191" value="" style="rounded=0;whiteSpace=wrap;html=1;strokeWidth=3;fontSize=20;container=0;fontStyle=1" parent="1" vertex="1">
          <mxGeometry x="1620" y="940" width="173" height="192" as="geometry" />
        </mxCell>
        <mxCell id="EZJUQ_Hk_AUpXrAV0Ghc-192" value="D" style="text;html=1;align=center;verticalAlign=middle;resizable=0;points=[];autosize=1;strokeColor=none;fillColor=none;strokeWidth=3;fontSize=20;container=0;fontStyle=1" parent="1" vertex="1">
          <mxGeometry x="1629" y="958" width="33" height="37" as="geometry" />
        </mxCell>
        <mxCell id="EZJUQ_Hk_AUpXrAV0Ghc-193" value="CLK" style="text;html=1;align=center;verticalAlign=middle;resizable=0;points=[];autosize=1;strokeColor=none;fillColor=none;strokeWidth=3;fontSize=20;container=0;fontStyle=1" parent="1" vertex="1">
          <mxGeometry x="1622" y="1074" width="58" height="37" as="geometry" />
        </mxCell>
        <mxCell id="EZJUQ_Hk_AUpXrAV0Ghc-194" value="Q" style="text;html=1;align=center;verticalAlign=middle;resizable=0;points=[];autosize=1;strokeColor=none;fillColor=none;strokeWidth=3;fontSize=20;container=0;fontStyle=1" parent="1" vertex="1">
          <mxGeometry x="1751" y="958" width="35" height="37" as="geometry" />
        </mxCell>
        <mxCell id="EZJUQ_Hk_AUpXrAV0Ghc-195" value="" style="rounded=0;whiteSpace=wrap;html=1;strokeWidth=3;fontSize=20;container=0;fontStyle=1" parent="1" vertex="1">
          <mxGeometry x="1568" y="1353" width="173" height="192" as="geometry" />
        </mxCell>
        <mxCell id="EZJUQ_Hk_AUpXrAV0Ghc-196" value="D" style="text;html=1;align=center;verticalAlign=middle;resizable=0;points=[];autosize=1;strokeColor=none;fillColor=none;strokeWidth=3;fontSize=20;container=0;fontStyle=1" parent="1" vertex="1">
          <mxGeometry x="1577" y="1371" width="33" height="37" as="geometry" />
        </mxCell>
        <mxCell id="EZJUQ_Hk_AUpXrAV0Ghc-197" value="CLK" style="text;html=1;align=center;verticalAlign=middle;resizable=0;points=[];autosize=1;strokeColor=none;fillColor=none;strokeWidth=3;fontSize=20;container=0;fontStyle=1" parent="1" vertex="1">
          <mxGeometry x="1570" y="1487" width="58" height="37" as="geometry" />
        </mxCell>
        <mxCell id="EZJUQ_Hk_AUpXrAV0Ghc-198" value="Q" style="text;html=1;align=center;verticalAlign=middle;resizable=0;points=[];autosize=1;strokeColor=none;fillColor=none;strokeWidth=3;fontSize=20;container=0;fontStyle=1" parent="1" vertex="1">
          <mxGeometry x="1699" y="1371" width="35" height="37" as="geometry" />
        </mxCell>
        <mxCell id="EZJUQ_Hk_AUpXrAV0Ghc-206" style="edgeStyle=orthogonalEdgeStyle;rounded=0;orthogonalLoop=1;jettySize=auto;html=1;entryX=0;entryY=0.5;entryDx=0;entryDy=0;endArrow=none;endFill=0;strokeWidth=3;" parent="1" source="EZJUQ_Hk_AUpXrAV0Ghc-199" target="EZJUQ_Hk_AUpXrAV0Ghc-133" edge="1">
          <mxGeometry relative="1" as="geometry">
            <Array as="points">
              <mxPoint x="1984" y="397" />
              <mxPoint x="1984" y="277" />
            </Array>
          </mxGeometry>
        </mxCell>
        <mxCell id="EZJUQ_Hk_AUpXrAV0Ghc-199" value="clk 2" style="rounded=0;whiteSpace=wrap;html=1;strokeColor=none;fontSize=20;" parent="1" vertex="1">
          <mxGeometry x="1433" y="380" width="67" height="35" as="geometry" />
        </mxCell>
        <mxCell id="EZJUQ_Hk_AUpXrAV0Ghc-200" value="clk 1" style="rounded=0;whiteSpace=wrap;html=1;strokeColor=none;fontSize=20;" parent="1" vertex="1">
          <mxGeometry x="1466" y="654" width="67" height="35" as="geometry" />
        </mxCell>
        <mxCell id="EZJUQ_Hk_AUpXrAV0Ghc-201" value="clk 2" style="rounded=0;whiteSpace=wrap;html=1;strokeColor=none;fontSize=20;" parent="1" vertex="1">
          <mxGeometry x="1464" y="774" width="67" height="35" as="geometry" />
        </mxCell>
        <mxCell id="EZJUQ_Hk_AUpXrAV0Ghc-202" value="clk 1" style="rounded=0;whiteSpace=wrap;html=1;strokeColor=none;fontSize=20;" parent="1" vertex="1">
          <mxGeometry x="1396" y="1078" width="67" height="35" as="geometry" />
        </mxCell>
        <mxCell id="EZJUQ_Hk_AUpXrAV0Ghc-208" style="edgeStyle=orthogonalEdgeStyle;rounded=0;orthogonalLoop=1;jettySize=auto;html=1;entryX=0;entryY=0.5;entryDx=0;entryDy=0;endArrow=none;endFill=0;strokeWidth=3;" parent="1" source="EZJUQ_Hk_AUpXrAV0Ghc-203" target="EZJUQ_Hk_AUpXrAV0Ghc-160" edge="1">
          <mxGeometry relative="1" as="geometry">
            <Array as="points">
              <mxPoint x="1949" y="1215" />
              <mxPoint x="1949" y="1094" />
            </Array>
          </mxGeometry>
        </mxCell>
        <mxCell id="EZJUQ_Hk_AUpXrAV0Ghc-203" value="clk 2" style="rounded=0;whiteSpace=wrap;html=1;strokeColor=none;fontSize=20;" parent="1" vertex="1">
          <mxGeometry x="1394" y="1198" width="67" height="35" as="geometry" />
        </mxCell>
        <mxCell id="EZJUQ_Hk_AUpXrAV0Ghc-204" value="clk 1" style="rounded=0;whiteSpace=wrap;html=1;strokeColor=none;fontSize=20;" parent="1" vertex="1">
          <mxGeometry x="1343" y="1493" width="67" height="35" as="geometry" />
        </mxCell>
        <mxCell id="EZJUQ_Hk_AUpXrAV0Ghc-209" style="edgeStyle=orthogonalEdgeStyle;rounded=0;orthogonalLoop=1;jettySize=auto;html=1;entryX=0;entryY=0.5;entryDx=0;entryDy=0;endArrow=none;endFill=0;strokeWidth=3;" parent="1" source="EZJUQ_Hk_AUpXrAV0Ghc-205" target="EZJUQ_Hk_AUpXrAV0Ghc-180" edge="1">
          <mxGeometry relative="1" as="geometry">
            <Array as="points">
              <mxPoint x="1886" y="1630" />
              <mxPoint x="1886" y="1510" />
            </Array>
          </mxGeometry>
        </mxCell>
        <mxCell id="EZJUQ_Hk_AUpXrAV0Ghc-205" value="clk 2" style="rounded=0;whiteSpace=wrap;html=1;strokeColor=none;fontSize=20;" parent="1" vertex="1">
          <mxGeometry x="1341" y="1613" width="67" height="35" as="geometry" />
        </mxCell>
        <mxCell id="EZJUQ_Hk_AUpXrAV0Ghc-207" style="edgeStyle=orthogonalEdgeStyle;rounded=0;orthogonalLoop=1;jettySize=auto;html=1;entryX=-0.001;entryY=0.802;entryDx=0;entryDy=0;entryPerimeter=0;strokeWidth=3;endArrow=none;endFill=0;" parent="1" source="EZJUQ_Hk_AUpXrAV0Ghc-201" target="EZJUQ_Hk_AUpXrAV0Ghc-149" edge="1">
          <mxGeometry relative="1" as="geometry">
            <Array as="points">
              <mxPoint x="2013" y="792" />
              <mxPoint x="2013" y="672" />
            </Array>
          </mxGeometry>
        </mxCell>
        <mxCell id="q8hK2LnE3IjyuRpZA4ey-2" value="&lt;font style=&quot;font-size: 40px;&quot;&gt;Different Clock&lt;/font&gt;" style="text;html=1;align=center;verticalAlign=middle;resizable=0;points=[];autosize=1;strokeColor=#b85450;fillColor=#f8cecc;" parent="1" vertex="1">
          <mxGeometry x="1765" y="8" width="290" height="60" as="geometry" />
        </mxCell>
      </root>
    </mxGraphModel>
  </diagram>
</mxfile>
